<svg aria-roledescription="er" role="graphics-document document" viewBox="0 0 629.15625 612.03125" style="max-width: 100%;" xmlns="http://www.w3.org/2000/svg" width="100%" id="graph-div" height="100%" xmlns:xlink="http://www.w3.org/1999/xlink"><style>@import url("https://cdnjs.cloudflare.com/ajax/libs/font-awesome/6.4.2/css/all.min.css");'</style><style>#graph-div{font-family:"trebuchet ms",verdana,arial,sans-serif;font-size:16px;fill:#333;}#graph-div .error-icon{fill:#552222;}#graph-div .error-text{fill:#552222;stroke:#552222;}#graph-div .edge-thickness-normal{stroke-width:2px;}#graph-div .edge-thickness-thick{stroke-width:3.5px;}#graph-div .edge-pattern-solid{stroke-dasharray:0;}#graph-div .edge-pattern-dashed{stroke-dasharray:3;}#graph-div .edge-pattern-dotted{stroke-dasharray:2;}#graph-div .marker{fill:#333333;stroke:#333333;}#graph-div .marker.cross{stroke:#333333;}#graph-div svg{font-family:"trebuchet ms",verdana,arial,sans-serif;font-size:16px;}#graph-div .entityBox{fill:#ECECFF;stroke:#9370DB;}#graph-div .attributeBoxOdd{fill:#ffffff;stroke:#9370DB;}#graph-div .attributeBoxEven{fill:#f2f2f2;stroke:#9370DB;}#graph-div .relationshipLabelBox{fill:hsl(80, 100%, 96.2745098039%);opacity:0.7;background-color:hsl(80, 100%, 96.2745098039%);}#graph-div .relationshipLabelBox rect{opacity:0.5;}#graph-div .relationshipLine{stroke:#333333;}#graph-div .entityTitleText{text-anchor:middle;font-size:18px;fill:#333;}#graph-div #MD_PARENT_START{fill:#f5f5f5!important;stroke:#333333!important;stroke-width:1;}#graph-div #MD_PARENT_END{fill:#f5f5f5!important;stroke:#333333!important;stroke-width:1;}#graph-div :root{--mermaid-font-family:"trebuchet ms",verdana,arial,sans-serif;}</style><g></g><defs><marker orient="auto" markerHeight="240" markerWidth="190" refY="7" refX="0" id="MD_PARENT_START"><path d="M 18,7 L9,13 L1,7 L9,1 Z"></path></marker></defs><defs><marker orient="auto" markerHeight="28" markerWidth="20" refY="7" refX="19" id="MD_PARENT_END"><path d="M 18,7 L9,13 L1,7 L9,1 Z"></path></marker></defs><defs><marker orient="auto" markerHeight="18" markerWidth="18" refY="9" refX="0" id="ONLY_ONE_START"><path d="M9,0 L9,18 M15,0 L15,18" fill="none" stroke="gray"></path></marker></defs><defs><marker orient="auto" markerHeight="18" markerWidth="18" refY="9" refX="18" id="ONLY_ONE_END"><path d="M3,0 L3,18 M9,0 L9,18" fill="none" stroke="gray"></path></marker></defs><defs><marker orient="auto" markerHeight="18" markerWidth="30" refY="9" refX="0" id="ZERO_OR_ONE_START"><circle r="6" cy="9" cx="21" fill="white" stroke="gray"></circle><path d="M9,0 L9,18" fill="none" stroke="gray"></path></marker></defs><defs><marker orient="auto" markerHeight="18" markerWidth="30" refY="9" refX="30" id="ZERO_OR_ONE_END"><circle r="6" cy="9" cx="9" fill="white" stroke="gray"></circle><path d="M21,0 L21,18" fill="none" stroke="gray"></path></marker></defs><defs><marker orient="auto" markerHeight="36" markerWidth="45" refY="18" refX="18" id="ONE_OR_MORE_START"><path d="M0,18 Q 18,0 36,18 Q 18,36 0,18 M42,9 L42,27" fill="none" stroke="gray"></path></marker></defs><defs><marker orient="auto" markerHeight="36" markerWidth="45" refY="18" refX="27" id="ONE_OR_MORE_END"><path d="M3,9 L3,27 M9,18 Q27,0 45,18 Q27,36 9,18" fill="none" stroke="gray"></path></marker></defs><defs><marker orient="auto" markerHeight="36" markerWidth="57" refY="18" refX="18" id="ZERO_OR_MORE_START"><circle r="6" cy="18" cx="48" fill="white" stroke="gray"></circle><path d="M0,18 Q18,0 36,18 Q18,36 0,18" fill="none" stroke="gray"></path></marker></defs><defs><marker orient="auto" markerHeight="36" markerWidth="57" refY="18" refX="39" id="ZERO_OR_MORE_END"><circle r="6" cy="18" cx="9" fill="white" stroke="gray"></circle><path d="M21,18 Q39,0 57,18 Q39,36 21,18" fill="none" stroke="gray"></path></marker></defs><path style="stroke: gray; fill: none;" marker-start="url(#ZERO_OR_MORE_START)" marker-end="url(#ONLY_ONE_END)" d="M49.761,88.008L44.8,96.341C39.84,104.674,29.92,121.341,36.375,138.008C42.83,154.674,65.66,171.341,77.075,179.674L88.489,188.008" class="er relationshipLine"></path><path style="stroke: gray; fill: none;" marker-start="url(#ZERO_OR_MORE_START)" marker-end="url(#ONLY_ONE_END)" d="M90.239,88.008L95.2,96.341C100.16,104.674,110.08,121.341,115.04,138.008C120,154.674,120,171.341,120,179.674L120,188.008" class="er relationshipLine"></path><path style="stroke: gray; fill: none;" marker-start="url(#ZERO_OR_ONE_START)" marker-end="url(#ONLY_ONE_END)" d="M258.206,88.008L252.721,96.341C247.236,104.674,236.265,121.341,218.761,138.008C201.256,154.674,177.217,171.341,165.198,179.674L153.179,188.008" class="er relationshipLine"></path><path style="stroke: gray; fill: none;" marker-start="url(#ZERO_OR_MORE_START)" marker-end="url(#ONLY_ONE_END)" d="M300.829,88.008L305.789,96.341C310.749,104.674,320.669,121.341,299.751,138.646C278.833,155.95,227.077,173.892,201.198,182.863L175.32,191.834" class="er relationshipLine"></path><path style="stroke: gray; fill: none;" marker-start="url(#ZERO_OR_MORE_START)" marker-end="url(#ONLY_ONE_END)" d="M170,424.023L170,432.357C170,440.69,170,457.357,170,474.023C170,490.69,170,507.357,170,515.69L170,524.023" class="er relationshipLine"></path><path style="stroke: gray; fill: none;" marker-start="url(#ZERO_OR_MORE_START)" marker-end="url(#ZERO_OR_MORE_END)" d="M299.156,349.834L310.823,347.197C322.49,344.561,345.823,339.288,360.406,336.652C374.99,334.016,380.823,334.016,386.656,341.516C392.49,349.017,398.323,364.018,398.323,379.02C398.323,394.021,392.49,409.022,386.656,416.523C380.823,424.023,374.99,424.023,360.406,421.387C345.823,418.751,322.49,413.478,310.823,410.842L299.156,408.205" class="er relationshipLine"></path><path style="stroke: gray; fill: none;" marker-start="url(#ZERO_OR_MORE_START)" marker-end="url(#ZERO_OR_MORE_END)" d="M120,234.016L120,242.349C120,250.682,120,267.349,124.386,284.016C128.772,300.682,137.543,317.349,141.929,325.682L146.315,334.016" class="er relationshipLine"></path><path style="stroke: gray; fill: none;" marker-start="url(#ZERO_OR_MORE_START)" marker-end="url(#ONLY_ONE_END)" d="M417.238,229.023L391.795,238.189C366.352,247.354,315.465,265.685,281.725,283.184C247.986,300.682,231.394,317.349,223.098,325.682L214.802,334.016" class="er relationshipLine"></path><path style="stroke: gray; fill: none;" marker-start="url(#ZERO_OR_MORE_START)" marker-end="url(#ONE_OR_MORE_END)" d="M434.89,234.016L423.171,242.349C411.452,250.682,388.015,267.349,359.229,284.016C330.443,300.682,296.308,317.349,279.24,325.682L262.173,334.016" class="er relationshipLine"></path><path style="stroke: gray; fill: none;" marker-start="url(#ZERO_OR_MORE_START)" marker-end="url(#ZERO_OR_MORE_END)" d="M496.202,234.016L506.694,242.349C517.187,250.682,538.172,267.349,548.664,285.266C559.156,303.184,559.156,322.352,559.156,331.936L559.156,341.52" class="er relationshipLine"></path><g transform="translate(64.6796875,188.0078125 )" id="entity-Title-4f030900-07b9-590a-a8ae-a91c541e09ce"><rect height="46.0078125" width="110.640625" y="0" x="0" class="er entityBox"></rect><text style="dominant-baseline: middle; text-anchor: middle; font-size: 12px;" transform="translate(55.3203125,12.00390625)" y="0" x="0" id="text-entity-Title-4f030900-07b9-590a-a8ae-a91c541e09ce" class="er entityLabel">Title</text><rect height="22" width="18.59375" y="24.0078125" x="0" class="er attributeBoxOdd"></rect><text style="dominant-baseline: middle; font-size: 10.2px;" transform="translate(5,35.0078125)" y="0" x="0" id="text-entity-Title-4f030900-07b9-590a-a8ae-a91c541e09ce-attr-1-type" class="er entityLabel">id</text><rect height="22" width="27.8828125" y="24.0078125" x="18.59375" class="er attributeBoxOdd"></rect><text style="dominant-baseline: middle; font-size: 10.2px;" transform="translate(23.59375,35.0078125)" y="0" x="0" id="text-entity-Title-4f030900-07b9-590a-a8ae-a91c541e09ce-attr-1-name" class="er entityLabel">PPN</text><rect height="22" width="64.1640625" y="24.0078125" x="46.4765625" class="er attributeBoxOdd"></rect><text style="dominant-baseline: middle; font-size: 10.2px;" transform="translate(51.4765625,35.0078125)" y="0" x="0" id="text-entity-Title-4f030900-07b9-590a-a8ae-a91c541e09ce-attr-1-comment" class="er entityLabel">primary key</text></g><g transform="translate(20,20 )" id="entity-Hierarchy-c6dd355d-d882-53f4-947d-ccf22bb093be"><rect height="68.0078125" width="100" y="0" x="0" class="er entityBox"></rect><text style="dominant-baseline: middle; text-anchor: middle; font-size: 12px;" transform="translate(50,12.00390625)" y="0" x="0" id="text-entity-Hierarchy-c6dd355d-d882-53f4-947d-ccf22bb093be" class="er entityLabel">Hierarchy</text><rect height="22" width="56.1484375" y="24.0078125" x="0" class="er attributeBoxOdd"></rect><text style="dominant-baseline: middle; font-size: 10.2px;" transform="translate(5,35.0078125)" y="0" x="0" id="text-entity-Hierarchy-c6dd355d-d882-53f4-947d-ccf22bb093be-attr-1-type" class="er entityLabel">child</text><rect height="22" width="43.8515625" y="24.0078125" x="56.1484375" class="er attributeBoxOdd"></rect><text style="dominant-baseline: middle; font-size: 10.2px;" transform="translate(61.1484375,35.0078125)" y="0" x="0" id="text-entity-Hierarchy-c6dd355d-d882-53f4-947d-ccf22bb093be-attr-1-name" class="er entityLabel">PPN</text><rect height="22" width="56.1484375" y="46.0078125" x="0" class="er attributeBoxEven"></rect><text style="dominant-baseline: middle; font-size: 10.2px;" transform="translate(5,57.0078125)" y="0" x="0" id="text-entity-Hierarchy-c6dd355d-d882-53f4-947d-ccf22bb093be-attr-2-type" class="er entityLabel">parent</text><rect height="22" width="43.8515625" y="46.0078125" x="56.1484375" class="er attributeBoxEven"></rect><text style="dominant-baseline: middle; font-size: 10.2px;" transform="translate(61.1484375,57.0078125)" y="0" x="0" id="text-entity-Hierarchy-c6dd355d-d882-53f4-947d-ccf22bb093be-attr-2-name" class="er entityLabel">PPN</text></g><g transform="translate(220,20 )" id="entity-Redirect-ee0c9b9e-d30d-5628-a955-f67a519e97b3"><rect height="68.0078125" width="121.17809295654297" y="0" x="0" class="er entityBox"></rect><text style="dominant-baseline: middle; text-anchor: middle; font-size: 12px;" transform="translate(60.589046478271484,12.00390625)" y="0" x="0" id="text-entity-Redirect-ee0c9b9e-d30d-5628-a955-f67a519e97b3" class="er entityLabel">Redirect</text><rect height="22" width="29.13121795654297" y="24.0078125" x="0" class="er attributeBoxOdd"></rect><text style="dominant-baseline: middle; font-size: 10.2px;" transform="translate(5,35.0078125)" y="0" x="0" id="text-entity-Redirect-ee0c9b9e-d30d-5628-a955-f67a519e97b3-attr-1-type" class="er entityLabel">old</text><rect height="22" width="27.8828125" y="24.0078125" x="29.13121795654297" class="er attributeBoxOdd"></rect><text style="dominant-baseline: middle; font-size: 10.2px;" transform="translate(34.13121795654297,35.0078125)" y="0" x="0" id="text-entity-Redirect-ee0c9b9e-d30d-5628-a955-f67a519e97b3-attr-1-name" class="er entityLabel">PPN</text><rect height="22" width="64.1640625" y="24.0078125" x="57.01403045654297" class="er attributeBoxOdd"></rect><text style="dominant-baseline: middle; font-size: 10.2px;" transform="translate(62.01403045654297,35.0078125)" y="0" x="0" id="text-entity-Redirect-ee0c9b9e-d30d-5628-a955-f67a519e97b3-attr-1-comment" class="er entityLabel">primary key</text><rect height="22" width="29.13121795654297" y="46.0078125" x="0" class="er attributeBoxEven"></rect><text style="dominant-baseline: middle; font-size: 10.2px;" transform="translate(5,57.0078125)" y="0" x="0" id="text-entity-Redirect-ee0c9b9e-d30d-5628-a955-f67a519e97b3-attr-2-type" class="er entityLabel">new</text><rect height="22" width="27.8828125" y="46.0078125" x="29.13121795654297" class="er attributeBoxEven"></rect><text style="dominant-baseline: middle; font-size: 10.2px;" transform="translate(34.13121795654297,57.0078125)" y="0" x="0" id="text-entity-Redirect-ee0c9b9e-d30d-5628-a955-f67a519e97b3-attr-2-name" class="er entityLabel">PPN</text><rect height="22" width="64.1640625" y="46.0078125" x="57.01403045654297" class="er attributeBoxEven"></rect><text style="dominant-baseline: middle; font-size: 10.2px;" transform="translate(62.01403045654297,57.0078125)" y="0" x="0" id="text-entity-Redirect-ee0c9b9e-d30d-5628-a955-f67a519e97b3-attr-2-comment" class="er entityLabel"></text></g><g transform="translate(112.75390625,524.0234375 )" id="entity-Vocabulary-7366264d-f06c-5a95-9434-e5a4bc9ddba4"><rect height="68.0078125" width="114.4921875" y="0" x="0" class="er entityBox"></rect><text style="dominant-baseline: middle; text-anchor: middle; font-size: 12px;" transform="translate(57.24609375,12.00390625)" y="0" x="0" id="text-entity-Vocabulary-7366264d-f06c-5a95-9434-e5a4bc9ddba4" class="er entityLabel">Vocabulary</text><rect height="22" width="22.4453125" y="24.0078125" x="0" class="er attributeBoxOdd"></rect><text style="dominant-baseline: middle; font-size: 10.2px;" transform="translate(5,35.0078125)" y="0" x="0" id="text-entity-Vocabulary-7366264d-f06c-5a95-9434-e5a4bc9ddba4-attr-1-type" class="er entityLabel">id</text><rect height="22" width="27.8828125" y="24.0078125" x="22.4453125" class="er attributeBoxOdd"></rect><text style="dominant-baseline: middle; font-size: 10.2px;" transform="translate(27.4453125,35.0078125)" y="0" x="0" id="text-entity-Vocabulary-7366264d-f06c-5a95-9434-e5a4bc9ddba4-attr-1-name" class="er entityLabel">URI</text><rect height="22" width="64.1640625" y="24.0078125" x="50.328125" class="er attributeBoxOdd"></rect><text style="dominant-baseline: middle; font-size: 10.2px;" transform="translate(55.328125,35.0078125)" y="0" x="0" id="text-entity-Vocabulary-7366264d-f06c-5a95-9434-e5a4bc9ddba4-attr-1-comment" class="er entityLabel">primary key</text><rect height="22" width="22.4453125" y="46.0078125" x="0" class="er attributeBoxEven"></rect><text style="dominant-baseline: middle; font-size: 10.2px;" transform="translate(5,57.0078125)" y="0" x="0" id="text-entity-Vocabulary-7366264d-f06c-5a95-9434-e5a4bc9ddba4-attr-2-type" class="er entityLabel">uri</text><rect height="22" width="27.8828125" y="46.0078125" x="22.4453125" class="er attributeBoxEven"></rect><text style="dominant-baseline: middle; font-size: 10.2px;" transform="translate(27.4453125,57.0078125)" y="0" x="0" id="text-entity-Vocabulary-7366264d-f06c-5a95-9434-e5a4bc9ddba4-attr-2-name" class="er entityLabel">PPN</text><rect height="22" width="64.1640625" y="46.0078125" x="50.328125" class="er attributeBoxEven"></rect><text style="dominant-baseline: middle; font-size: 10.2px;" transform="translate(55.328125,57.0078125)" y="0" x="0" id="text-entity-Vocabulary-7366264d-f06c-5a95-9434-e5a4bc9ddba4-attr-2-comment" class="er entityLabel">unique</text></g><g transform="translate(40.84375,334.015625 )" id="entity-Concept-8993e37b-e395-5263-a074-491c52a2de64"><rect height="90.0078125" width="258.3125" y="0" x="0" class="er entityBox"></rect><text style="dominant-baseline: middle; text-anchor: middle; font-size: 12px;" transform="translate(129.15625,12.00390625)" y="0" x="0" id="text-entity-Concept-8993e37b-e395-5263-a074-491c52a2de64" class="er entityLabel">Concept</text><rect height="22" width="25.515625" y="24.0078125" x="0" class="er attributeBoxOdd"></rect><text style="dominant-baseline: middle; font-size: 10.2px;" transform="translate(5,35.0078125)" y="0" x="0" id="text-entity-Concept-8993e37b-e395-5263-a074-491c52a2de64-attr-1-type" class="er entityLabel">uri</text><rect height="22" width="35.734375" y="24.0078125" x="25.515625" class="er attributeBoxOdd"></rect><text style="dominant-baseline: middle; font-size: 10.2px;" transform="translate(30.515625,35.0078125)" y="0" x="0" id="text-entity-Concept-8993e37b-e395-5263-a074-491c52a2de64-attr-1-name" class="er entityLabel">URI</text><rect height="22" width="197.0625" y="24.0078125" x="61.25" class="er attributeBoxOdd"></rect><text style="dominant-baseline: middle; font-size: 10.2px;" transform="translate(66.25,35.0078125)" y="0" x="0" id="text-entity-Concept-8993e37b-e395-5263-a074-491c52a2de64-attr-1-comment" class="er entityLabel">primary key</text><rect height="22" width="25.515625" y="46.0078125" x="0" class="er attributeBoxEven"></rect><text style="dominant-baseline: middle; font-size: 10.2px;" transform="translate(5,57.0078125)" y="0" x="0" id="text-entity-Concept-8993e37b-e395-5263-a074-491c52a2de64-attr-2-type" class="er entityLabel">id</text><rect height="22" width="35.734375" y="46.0078125" x="25.515625" class="er attributeBoxEven"></rect><text style="dominant-baseline: middle; font-size: 10.2px;" transform="translate(30.515625,57.0078125)" y="0" x="0" id="text-entity-Concept-8993e37b-e395-5263-a074-491c52a2de64-attr-2-name" class="er entityLabel">string</text><rect height="22" width="197.0625" y="46.0078125" x="61.25" class="er attributeBoxEven"></rect><text style="dominant-baseline: middle; font-size: 10.2px;" transform="translate(66.25,57.0078125)" y="0" x="0" id="text-entity-Concept-8993e37b-e395-5263-a074-491c52a2de64-attr-2-comment" class="er entityLabel">unique combined with voc</text><rect height="22" width="25.515625" y="68.0078125" x="0" class="er attributeBoxOdd"></rect><text style="dominant-baseline: middle; font-size: 10.2px;" transform="translate(5,79.0078125)" y="0" x="0" id="text-entity-Concept-8993e37b-e395-5263-a074-491c52a2de64-attr-3-type" class="er entityLabel">voc</text><rect height="22" width="35.734375" y="68.0078125" x="25.515625" class="er attributeBoxOdd"></rect><text style="dominant-baseline: middle; font-size: 10.2px;" transform="translate(30.515625,79.0078125)" y="0" x="0" id="text-entity-Concept-8993e37b-e395-5263-a074-491c52a2de64-attr-3-name" class="er entityLabel">URI</text><rect height="22" width="197.0625" y="68.0078125" x="61.25" class="er attributeBoxOdd"></rect><text style="dominant-baseline: middle; font-size: 10.2px;" transform="translate(66.25,79.0078125)" y="0" x="0" id="text-entity-Concept-8993e37b-e395-5263-a074-491c52a2de64-attr-3-comment" class="er entityLabel">foreign key and unique combined with id</text></g><g transform="translate(417.23828125,188.0078125 )" id="entity-Mapping-1370b814-b9dd-5b93-bbd5-9dc23aa69b8e"><rect height="46.0078125" width="100" y="0" x="0" class="er entityBox"></rect><text style="dominant-baseline: middle; text-anchor: middle; font-size: 12px;" transform="translate(50,12.00390625)" y="0" x="0" id="text-entity-Mapping-1370b814-b9dd-5b93-bbd5-9dc23aa69b8e" class="er entityLabel">Mapping</text><rect height="22" width="48.696922302246094" y="24.0078125" x="0" class="er attributeBoxOdd"></rect><text style="dominant-baseline: middle; font-size: 10.2px;" transform="translate(5,35.0078125)" y="0" x="0" id="text-entity-Mapping-1370b814-b9dd-5b93-bbd5-9dc23aa69b8e-attr-1-type" class="er entityLabel">type</text><rect height="22" width="51.303077697753906" y="24.0078125" x="48.696922302246094" class="er attributeBoxOdd"></rect><text style="dominant-baseline: middle; font-size: 10.2px;" transform="translate(53.696922302246094,35.0078125)" y="0" x="0" id="text-entity-Mapping-1370b814-b9dd-5b93-bbd5-9dc23aa69b8e-attr-1-name" class="er entityLabel">TYPE</text></g><g transform="translate(509.15625,341.51953125 )" id="entity-Concordance-4d61a2f0-49cf-54a1-890b-a28b72ea6b8a"><rect height="75" width="100" y="0" x="0" class="er entityBox"></rect><text style="dominant-baseline: middle; text-anchor: middle; font-size: 12px;" transform="translate(50,37.5)" y="0" x="0" id="text-entity-Concordance-4d61a2f0-49cf-54a1-890b-a28b72ea6b8a" class="er entityLabel">Concordance</text></g><rect height="14.0078125" width="26.1484375" y="139.4497528076172" x="27.8671875" class="er relationshipLabelBox"></rect><text style="text-anchor: middle; dominant-baseline: middle; font-size: 12px;" y="146.4536590576172" x="40.94140625" id="rel795" class="er relationshipLabel">child</text><rect height="14.0078125" width="35.515625" y="128.37161254882812" x="96.45840454101562" class="er relationshipLabelBox"></rect><text style="text-anchor: middle; dominant-baseline: middle; font-size: 12px;" y="135.37551879882812" x="114.21621704101562" id="rel796" class="er relationshipLabel">parent</text><rect height="14.0078125" width="16.6640625" y="137.30154418945312" x="203.52151489257812" class="er relationshipLabelBox"></rect><text style="text-anchor: middle; dominant-baseline: middle; font-size: 12px;" y="144.30545043945312" x="211.85354614257812" id="rel797" class="er relationshipLabel">old</text><rect height="14.0078125" width="22.1015625" y="151.0050048828125" x="254.85446166992188" class="er relationshipLabelBox"></rect><text style="text-anchor: middle; dominant-baseline: middle; font-size: 12px;" y="158.0089111328125" x="265.9052429199219" id="rel798" class="er relationshipLabel">new</text><rect height="14.0078125" width="51.3046875" y="467.01910400390625" x="144.34765625" class="er relationshipLabelBox"></rect><text style="text-anchor: middle; dominant-baseline: middle; font-size: 12px;" y="474.02301025390625" x="170" id="rel799" class="er relationshipLabel">inScheme</text><rect height="14.0078125" width="42.234375" y="372.015625" x="377.205810546875" class="er relationshipLabelBox"></rect><text style="text-anchor: middle; dominant-baseline: middle; font-size: 12px;" y="379.01953125" x="398.322998046875" id="rel800" class="er relationshipLabel">relation</text><rect height="14.0078125" width="39.75" y="279.1205749511719" x="105.08897399902344" class="er relationshipLabelBox"></rect><text style="text-anchor: middle; dominant-baseline: middle; font-size: 12px;" y="286.1244812011719" x="124.96397399902344" id="rel801" class="er relationshipLabel">subject</text><rect height="14.0078125" width="25.5" y="263.0665283203125" x="296.8056640625" class="er relationshipLabelBox"></rect><text style="text-anchor: middle; dominant-baseline: middle; font-size: 12px;" y="270.0704345703125" x="309.5556640625" id="rel802" class="er relationshipLabel">from</text><rect height="14.0078125" width="11.2578125" y="281.5839538574219" x="345.57464599609375" class="er relationshipLabelBox"></rect><text style="text-anchor: middle; dominant-baseline: middle; font-size: 12px;" y="288.5878601074219" x="351.20355224609375" id="rel803" class="er relationshipLabel">to</text><rect height="14.0078125" width="34.998046875" y="271.70086669921875" x="526.841552734375" class="er relationshipLabelBox"></rect><text style="text-anchor: middle; dominant-baseline: middle; font-size: 12px;" y="278.70477294921875" x="544.340576171875" id="rel804" class="er relationshipLabel">partOf</text></svg>